# xmcd CD database file
#
# Track frame offsets:
#	150
#	95577
#	179826
#	259503
#
# Disc length: 4766 seconds
#
# Revision: 0
# Processed by: cddbd v1.5.1PL0 Copyright (c) Steve Scherf et al.
# Submitted via: CDex 1.51
#
DISCID=32129c04
DTITLE=ornette coleman - chappaqua
DYEAR=1900
DGENRE=Jazz
TTITLE0=chappaqua suite i
TTITLE1=chappaqua suite ii
TTITLE2=chappaqua suite iii
TTITLE3=chappaqua suite iv
EXTD=
EXTT0=
EXTT1=
EXTT2=
EXTT3=
PLAYORDER=
